<?xml version='1.0' encoding='UTF-8' standalone='no'?>
<svg baseProfile="tiny" width="25.4mm" version="1.2" height="25.4mm" xmlns="http://www.w3.org/2000/svg" xmlns:xlink="http://www.w3.org/1999/xlink" xmlns:cc="http://creativecommons.org/ns#" viewBox="0 0 300 300">
 <defs>
  <linearGradient gradientUnits="objectBoundingBox" y1="0.387524" x1="0.012815" id="gradient1" x2="0.987185" y2="0.612476">
   <stop stop-color="#7bb8e4" offset="0" stop-opacity="1"/>
   <stop stop-color="#ffffff" offset="1" stop-opacity="1"/>
  </linearGradient>
 </defs>
 <g stroke-linecap="square" stroke="black" stroke-linejoin="bevel" stroke-width="1" fill="none" fill-rule="evenodd">
  <g font-family="MS Shell Dlg 2" transform="matrix(1,0,0,1,0,0)" font-weight="400" stroke-opacity="1" stroke-linecap="square" stroke="#000000" stroke-linejoin="bevel" stroke-width="1" font-size="32.5" font-style="normal" fill="none"/>
  <g font-family="MS Shell Dlg 2" transform="matrix(1,0,0,1,0,0)" font-weight="400" stroke-opacity="1" stroke-linecap="square" stroke="#000000" stroke-linejoin="bevel" stroke-width="1" font-size="32.5" font-style="normal" fill="none"/>
  <g font-family="MS Shell Dlg 2" transform="matrix(11.811,0,0,11.811,0,0)" font-weight="400" stroke-opacity="1" stroke-linecap="square" stroke="#000000" stroke-linejoin="bevel" stroke-width="1" font-size="32.5" font-style="normal" fill="none"/>
  <g font-family="MS Shell Dlg 2" transform="matrix(1,0,0,1,0,0)" font-weight="400" stroke-opacity="1" stroke-linecap="square" stroke="#000000" stroke-linejoin="bevel" stroke-width="1" font-size="32.5" font-style="normal" fill="none"/>
  <g fill-opacity="0" font-family="MS Shell Dlg 2" transform="matrix(1,0,0,1,0,0)" font-weight="400" stroke="none" font-size="32.5" font-style="normal" fill="#ffffff">
   <path vector-effect="none" d="M-2,-2 L302,-2 L302,302 L-2,302 L-2,-2" fill-rule="evenodd"/>
  </g>
  <g font-family="MS Shell Dlg 2" transform="matrix(1,0,0,1,0,0)" font-weight="400" stroke-opacity="1" stroke-linecap="square" stroke="#000000" stroke-linejoin="bevel" stroke-width="1" font-size="32.5" font-style="normal" fill="none"/>
  <g font-family="MS Shell Dlg 2" transform="matrix(11.811,0,0,11.811,0,0)" font-weight="400" stroke-opacity="1" stroke-linecap="square" stroke="#000000" stroke-linejoin="bevel" stroke-width="1" font-size="32.5" font-style="normal" fill="none"/>
  <g font-family="MS Shell Dlg 2" transform="matrix(11.811,0,0,11.811,0,0)" font-weight="400" stroke-opacity="1" stroke-linecap="square" stroke="#000000" stroke-linejoin="bevel" stroke-width="1" font-size="32.5" font-style="normal" fill="none"/>
  <g font-family="MS Shell Dlg 2" transform="matrix(11.811,0,0,11.811,0,0)" font-weight="400" stroke-opacity="1" stroke-linecap="square" stroke="#000000" stroke-linejoin="bevel" stroke-width="1" font-size="32.5" font-style="normal" fill="none"/>
  <g font-family="MS Shell Dlg 2" transform="matrix(11.811,0,0,11.811,0,0)" font-weight="400" stroke-opacity="1" stroke-linecap="square" stroke="#000000" stroke-linejoin="bevel" stroke-width="1" font-size="32.5" font-style="normal" fill="none"/>
  <g font-family="MS Shell Dlg 2" transform="matrix(11.811,0,0,11.811,0,0)" font-weight="400" stroke-opacity="1" stroke-linecap="square" stroke="#000000" stroke-linejoin="bevel" stroke-width="1" font-size="32.5" font-style="normal" fill="none"/>
  <g font-family="MS Shell Dlg 2" transform="matrix(1,0,0,1,0,0)" font-weight="400" stroke="none" font-size="32.5" font-style="normal" fill="url(#gradient1)">
   <path vector-effect="none" d="M300,150 L299.997,150.97 L299.988,151.939 L299.972,152.906 L299.951,153.872 L299.924,154.836 L299.89,155.798 L299.85,156.759 L299.805,157.719 L299.753,158.677 L299.696,159.633 L299.632,160.588 L299.563,161.541 L299.487,162.492 L299.406,163.442 L299.319,164.39 L299.226,165.337 L299.127,166.281 L299.022,167.224 L298.911,168.165 L298.795,169.105 L298.673,170.042 L298.545,170.978 L298.411,171.912 L298.272,172.844 L298.127,173.774 L297.976,174.702 L297.819,175.628 L297.657,176.552 L297.489,177.475 L297.316,178.395 L297.137,179.314 L296.953,180.23 L296.762,181.145 L296.567,182.057 L296.366,182.967 L296.159,183.876 L295.947,184.782 L295.729,185.686 L295.506,186.588 L295.278,187.487 L295.044,188.385 L294.804,189.28 L294.56,190.173 L294.31,191.064 L294.054,191.953 L293.794,192.839 L293.528,193.724 L293.256,194.605 L292.98,195.485 L292.698,196.362 L292.411,197.237 L292.119,198.109 L291.821,198.979 L291.519,199.847 L291.211,200.712 L290.898,201.575 L290.58,202.435 L290.257,203.293 L289.929,204.148 L289.595,205.001 L289.257,205.851 L288.914,206.699 L288.566,207.544 L288.212,208.387 L287.854,209.227 L287.491,210.064 L287.123,210.899 L286.749,211.73 L286.372,212.56 L285.989,213.386 L285.601,214.21 L285.208,215.031 L284.811,215.85 L284.409,216.665 L284.002,217.478 L283.59,218.288 L283.174,219.095 L282.752,219.899 L282.326,220.7 L281.896,221.499 L281.461,222.294 L281.021,223.087 L280.576,223.877 L280.127,224.664 L279.673,225.447 L279.214,226.228 L278.752,227.006 L278.284,227.78 L277.812,228.552 L277.335,229.321 L276.854,230.086 L276.369,230.848 L275.879,231.608 L275.384,232.364 L274.886,233.117 L274.382,233.866 L273.875,234.613 L273.363,235.356 L272.846,236.096 L272.326,236.833 L271.801,237.567 L271.272,238.297 L270.738,239.024 L270.2,239.747 L269.658,240.468 L269.112,241.184 L268.562,241.898 L268.007,242.608 L267.448,243.315 L266.885,244.018 L266.318,244.718 L265.747,245.414 L265.172,246.107 L264.593,246.796 L264.009,247.482 L263.422,248.164 L262.831,248.842 L262.235,249.517 L261.636,250.189 L261.033,250.857 L260.425,251.521 L259.814,252.181 L259.199,252.838 L258.58,253.491 L257.957,254.14 L257.331,254.786 L256.7,255.428 L256.066,256.066 L255.428,256.7 L254.786,257.331 L254.14,257.957 L253.491,258.58 L252.838,259.199 L252.181,259.814 L251.521,260.425 L250.857,261.033 L250.189,261.636 L249.517,262.235 L248.842,262.831 L248.164,263.422 L247.482,264.009 L246.796,264.593 L246.107,265.172 L245.414,265.747 L244.718,266.318 L244.018,266.885 L243.315,267.448 L242.608,268.007 L241.898,268.562 L241.184,269.112 L240.468,269.658 L239.747,270.2 L239.024,270.738 L238.297,271.272 L237.567,271.801 L236.833,272.326 L236.096,272.846 L235.356,273.363 L234.613,273.875 L233.866,274.382 L233.117,274.886 L232.364,275.384 L231.608,275.879 L230.848,276.369 L230.086,276.854 L229.321,277.335 L228.552,277.812 L227.78,278.284 L227.006,278.752 L226.228,279.214 L225.447,279.673 L224.664,280.127 L223.877,280.576 L223.087,281.021 L222.294,281.461 L221.499,281.896 L220.7,282.326 L219.899,282.752 L219.095,283.174 L218.288,283.59 L217.478,284.002 L216.665,284.409 L215.85,284.811 L215.031,285.208 L214.21,285.601 L213.386,285.989 L212.56,286.372 L211.73,286.749 L210.899,287.123 L210.064,287.491 L209.227,287.854 L208.387,288.212 L207.544,288.566 L206.699,288.914 L205.851,289.257 L205.001,289.595 L204.148,289.929 L203.293,290.257 L202.435,290.58 L201.575,290.898 L200.712,291.211 L199.847,291.519 L198.979,291.821 L198.109,292.119 L197.237,292.411 L196.362,292.698 L195.485,292.98 L194.605,293.256 L193.724,293.528 L192.839,293.794 L191.953,294.054 L191.064,294.31 L190.173,294.56 L189.28,294.804 L188.385,295.044 L187.487,295.278 L186.588,295.506 L185.686,295.729 L184.782,295.947 L183.876,296.159 L182.967,296.366 L182.057,296.567 L181.145,296.762 L180.23,296.953 L179.314,297.137 L178.395,297.316 L177.475,297.489 L176.552,297.657 L175.628,297.819 L174.702,297.976 L173.774,298.127 L172.844,298.272 L171.912,298.411 L170.978,298.545 L170.042,298.673 L169.105,298.795 L168.165,298.911 L167.224,299.022 L166.281,299.127 L165.337,299.226 L164.39,299.319 L163.442,299.406 L162.492,299.487 L161.541,299.563 L160.588,299.632 L159.633,299.696 L158.677,299.753 L157.719,299.805 L156.759,299.85 L155.798,299.89 L154.836,299.924 L153.872,299.951 L152.906,299.972 L151.939,299.988 L150.97,299.997 L150,300 L149.03,299.997 L148.061,299.988 L147.094,299.972 L146.128,299.951 L145.164,299.924 L144.202,299.89 L143.241,299.85 L142.281,299.805 L141.323,299.753 L140.367,299.696 L139.412,299.632 L138.459,299.563 L137.508,299.487 L136.558,299.406 L135.61,299.319 L134.663,299.226 L133.719,299.127 L132.776,299.022 L131.835,298.911 L130.895,298.795 L129.958,298.673 L129.022,298.545 L128.088,298.411 L127.156,298.272 L126.226,298.127 L125.298,297.976 L124.372,297.819 L123.448,297.657 L122.525,297.489 L121.605,297.316 L120.686,297.137 L119.77,296.953 L118.855,296.762 L117.943,296.567 L117.033,296.366 L116.124,296.159 L115.218,295.947 L114.314,295.729 L113.412,295.506 L112.513,295.278 L111.615,295.044 L110.72,294.804 L109.827,294.56 L108.936,294.31 L108.047,294.054 L107.161,293.794 L106.276,293.528 L105.395,293.256 L104.515,292.98 L103.638,292.698 L102.763,292.411 L101.891,292.119 L101.021,291.821 L100.153,291.519 L99.2877,291.211 L98.425,290.898 L97.5647,290.58 L96.7069,290.257 L95.8516,289.929 L94.9988,289.595 L94.1485,289.257 L93.3008,288.914 L92.4557,288.566 L91.6132,288.212 L90.7733,287.854 L89.9361,287.491 L89.1015,287.123 L88.2695,286.749 L87.4403,286.372 L86.6137,285.989 L85.7899,285.601 L84.9688,285.208 L84.1505,284.811 L83.3349,284.409 L82.5222,284.002 L81.7123,283.59 L80.9052,283.174 L80.1009,282.752 L79.2996,282.326 L78.5011,281.896 L77.7055,281.461 L76.9129,281.021 L76.1232,280.576 L75.3365,280.127 L74.5527,279.673 L73.772,279.214 L72.9942,278.752 L72.2195,278.284 L71.4479,277.812 L70.6793,277.335 L69.9139,276.854 L69.1515,276.369 L68.3923,275.879 L67.6362,275.384 L66.8833,274.886 L66.1336,274.382 L65.387,273.875 L64.6437,273.363 L63.9037,272.846 L63.1669,272.326 L62.4333,271.801 L61.7031,271.272 L60.9762,270.738 L60.2526,270.2 L59.5324,269.658 L58.8155,269.112 L58.102,268.562 L57.3919,268.007 L56.6853,267.448 L55.9821,266.885 L55.2823,266.318 L54.5861,265.747 L53.8933,265.172 L53.204,264.593 L52.5183,264.009 L51.8362,263.422 L51.1576,262.831 L50.4826,262.235 L49.8112,261.636 L49.1434,261.033 L48.4793,260.425 L47.8188,259.814 L47.162,259.199 L46.5089,258.58 L45.8596,257.957 L45.2139,257.331 L44.5721,256.7 L43.934,256.066 L43.2997,255.428 L42.6692,254.786 L42.0425,254.14 L41.4197,253.491 L40.8008,252.838 L40.1857,252.181 L39.5745,251.521 L38.9673,250.857 L38.364,250.189 L37.7646,249.517 L37.1693,248.842 L36.5779,248.164 L35.9905,247.482 L35.4072,246.796 L34.8279,246.107 L34.2527,245.414 L33.6816,244.718 L33.1146,244.018 L32.5517,243.315 L31.9929,242.608 L31.4383,241.898 L30.8879,241.184 L30.3417,240.468 L29.7997,239.747 L29.2619,239.024 L28.7284,238.297 L28.1992,237.567 L27.6742,236.833 L27.1536,236.096 L26.6372,235.356 L26.1253,234.613 L25.6176,233.866 L25.1144,233.117 L24.6156,232.364 L24.1212,231.608 L23.6312,230.848 L23.1457,230.086 L22.6646,229.321 L22.1881,228.552 L21.716,227.78 L21.2485,227.006 L20.7855,226.228 L20.3271,225.447 L19.8733,224.664 L19.4241,223.877 L18.9795,223.087 L18.5395,222.294 L18.1042,221.499 L17.6736,220.7 L17.2476,219.899 L16.8264,219.095 L16.4099,218.288 L15.9982,217.478 L15.5912,216.665 L15.189,215.85 L14.7916,215.031 L14.3991,214.21 L14.0114,213.386 L13.6285,212.56 L13.2505,211.73 L12.8774,210.899 L12.5093,210.064 L12.146,209.227 L11.7877,208.387 L11.4344,207.544 L11.0861,206.699 L10.7428,205.851 L10.4045,205.001 L10.0713,204.148 L9.74307,203.293 L9.41996,202.435 L9.10196,201.575 L8.78907,200.712 L8.48132,199.847 L8.17873,198.979 L7.8813,198.109 L7.58907,197.237 L7.30205,196.362 L7.02025,195.485 L6.7437,194.605 L6.47242,193.724 L6.20642,192.839 L5.94572,191.953 L5.69034,191.064 L5.4403,190.173 L5.19562,189.28 L4.95631,188.385 L4.7224,187.487 L4.4939,186.588 L4.27082,185.686 L4.0532,184.782 L3.84105,183.876 L3.63438,182.967 L3.43321,182.057 L3.23757,181.145 L3.04747,180.23 L2.86292,179.314 L2.68396,178.395 L2.51059,177.475 L2.34284,176.552 L2.18072,175.628 L2.02425,174.702 L1.87345,173.774 L1.72834,172.844 L1.58893,171.912 L1.45525,170.978 L1.32732,170.042 L1.20514,169.105 L1.08875,168.165 L0.978154,167.224 L0.873376,166.281 L0.774433,165.337 L0.681344,164.39 L0.594128,163.442 L0.512802,162.492 L0.437386,161.541 L0.367897,160.588 L0.304354,159.633 L0.246775,158.677 L0.195179,157.719 L0.149584,156.759 L0.110009,155.798 L0.0764719,154.836 L0.0489911,153.872 L0.0275851,152.906 L0.0122723,151.939 L0.00307115,150.97 L0,150 L0.00307115,149.03 L0.0122723,148.061 L0.0275851,147.094 L0.0489911,146.128 L0.0764719,145.164 L0.110009,144.202 L0.149584,143.241 L0.195179,142.281 L0.246775,141.323 L0.304354,140.367 L0.367897,139.412 L0.437386,138.459 L0.512802,137.508 L0.594128,136.558 L0.681344,135.61 L0.774433,134.663 L0.873376,133.719 L0.978154,132.776 L1.08875,131.835 L1.20514,130.895 L1.32732,129.958 L1.45525,129.022 L1.58893,128.088 L1.72834,127.156 L1.87345,126.226 L2.02425,125.298 L2.18072,124.372 L2.34284,123.448 L2.51059,122.525 L2.68396,121.605 L2.86292,120.686 L3.04747,119.77 L3.23757,118.855 L3.43321,117.943 L3.63438,117.033 L3.84105,116.124 L4.0532,115.218 L4.27082,114.314 L4.4939,113.412 L4.7224,112.513 L4.95631,111.615 L5.19562,110.72 L5.4403,109.827 L5.69034,108.936 L5.94572,108.047 L6.20642,107.161 L6.47242,106.276 L6.7437,105.395 L7.02025,104.515 L7.30205,103.638 L7.58907,102.763 L7.8813,101.891 L8.17873,101.021 L8.48132,100.153 L8.78907,99.2877 L9.10196,98.425 L9.41996,97.5647 L9.74307,96.7069 L10.0713,95.8516 L10.4045,94.9988 L10.7428,94.1485 L11.0861,93.3008 L11.4344,92.4557 L11.7877,91.6132 L12.146,90.7733 L12.5093,89.9361 L12.8774,89.1015 L13.2505,88.2695 L13.6285,87.4403 L14.0114,86.6137 L14.3991,85.7899 L14.7916,84.9688 L15.189,84.1505 L15.5912,83.3349 L15.9982,82.5222 L16.4099,81.7123 L16.8264,80.9052 L17.2476,80.1009 L17.6736,79.2996 L18.1042,78.5011 L18.5395,77.7055 L18.9795,76.9129 L19.4241,76.1232 L19.8733,75.3365 L20.3271,74.5527 L20.7855,73.772 L21.2485,72.9942 L21.716,72.2195 L22.1881,71.4479 L22.6646,70.6793 L23.1457,69.9139 L23.6312,69.1515 L24.1212,68.3923 L24.6156,67.6362 L25.1144,66.8833 L25.6176,66.1336 L26.1253,65.387 L26.6372,64.6437 L27.1536,63.9037 L27.6742,63.1669 L28.1992,62.4333 L28.7284,61.7031 L29.2619,60.9762 L29.7997,60.2526 L30.3417,59.5324 L30.8879,58.8155 L31.4383,58.102 L31.9929,57.3919 L32.5517,56.6853 L33.1146,55.9821 L33.6816,55.2823 L34.2527,54.5861 L34.8279,53.8933 L35.4072,53.204 L35.9905,52.5183 L36.5779,51.8362 L37.1693,51.1576 L37.7646,50.4826 L38.364,49.8112 L38.9673,49.1434 L39.5745,48.4793 L40.1857,47.8188 L40.8008,47.162 L41.4197,46.5089 L42.0425,45.8596 L42.6692,45.2139 L43.2997,44.5721 L43.934,43.934 L44.5721,43.2997 L45.2139,42.6692 L45.8596,42.0425 L46.5089,41.4197 L47.162,40.8008 L47.8188,40.1857 L48.4793,39.5745 L49.1434,38.9673 L49.8112,38.364 L50.4826,37.7646 L51.1576,37.1693 L51.8362,36.5779 L52.5183,35.9905 L53.204,35.4072 L53.8933,34.8279 L54.5861,34.2527 L55.2823,33.6816 L55.9821,33.1146 L56.6853,32.5517 L57.3919,31.9929 L58.102,31.4383 L58.8155,30.8879 L59.5324,30.3417 L60.2526,29.7997 L60.9762,29.2619 L61.7031,28.7284 L62.4333,28.1992 L63.1669,27.6742 L63.9037,27.1536 L64.6437,26.6372 L65.387,26.1253 L66.1336,25.6176 L66.8833,25.1144 L67.6362,24.6156 L68.3923,24.1212 L69.1515,23.6312 L69.9139,23.1457 L70.6793,22.6646 L71.4479,22.1881 L72.2195,21.716 L72.9942,21.2485 L73.772,20.7855 L74.5527,20.3271 L75.3365,19.8733 L76.1232,19.4241 L76.9129,18.9795 L77.7055,18.5395 L78.5011,18.1042 L79.2996,17.6736 L80.1009,17.2476 L80.9052,16.8264 L81.7123,16.4099 L82.5222,15.9982 L83.3349,15.5912 L84.1505,15.189 L84.9688,14.7916 L85.7899,14.3991 L86.6137,14.0114 L87.4403,13.6285 L88.2695,13.2505 L89.1015,12.8774 L89.9361,12.5093 L90.7733,12.146 L91.6132,11.7877 L92.4557,11.4344 L93.3008,11.0861 L94.1485,10.7428 L94.9988,10.4045 L95.8516,10.0713 L96.7069,9.74307 L97.5647,9.41996 L98.425,9.10196 L99.2877,8.78907 L100.153,8.48132 L101.021,8.17873 L101.891,7.8813 L102.763,7.58907 L103.638,7.30205 L104.515,7.02025 L105.395,6.7437 L106.276,6.47242 L107.161,6.20642 L108.047,5.94572 L108.936,5.69034 L109.827,5.4403 L110.72,5.19562 L111.615,4.95631 L112.513,4.7224 L113.412,4.4939 L114.314,4.27082 L115.218,4.0532 L116.124,3.84105 L117.033,3.63438 L117.943,3.43321 L118.855,3.23757 L119.77,3.04747 L120.686,2.86292 L121.605,2.68396 L122.525,2.51059 L123.448,2.34284 L124.372,2.18072 L125.298,2.02425 L126.226,1.87345 L127.156,1.72834 L128.088,1.58893 L129.022,1.45525 L129.958,1.32732 L130.895,1.20514 L131.835,1.08875 L132.776,0.978154 L133.719,0.873376 L134.663,0.774433 L135.61,0.681344 L136.558,0.594128 L137.508,0.512802 L138.459,0.437386 L139.412,0.367897 L140.367,0.304354 L141.323,0.246775 L142.281,0.195179 L143.241,0.149584 L144.202,0.110009 L145.164,0.0764719 L146.128,0.0489911 L147.094,0.0275851 L148.061,0.0122723 L149.03,0.00307115 L150,0 L150.97,0.00307115 L151.939,0.0122723 L152.906,0.0275851 L153.872,0.0489911 L154.836,0.0764719 L155.798,0.110009 L156.759,0.149584 L157.719,0.195179 L158.677,0.246775 L159.633,0.304354 L160.588,0.367897 L161.541,0.437386 L162.492,0.512802 L163.442,0.594128 L164.39,0.681344 L165.337,0.774433 L166.281,0.873376 L167.224,0.978154 L168.165,1.08875 L169.105,1.20514 L170.042,1.32732 L170.978,1.45525 L171.912,1.58893 L172.844,1.72834 L173.774,1.87345 L174.702,2.02425 L175.628,2.18072 L176.552,2.34284 L177.475,2.51059 L178.395,2.68396 L179.314,2.86292 L180.23,3.04747 L181.145,3.23757 L182.057,3.43321 L182.967,3.63438 L183.876,3.84105 L184.782,4.0532 L185.686,4.27082 L186.588,4.4939 L187.487,4.7224 L188.385,4.95631 L189.28,5.19562 L190.173,5.4403 L191.064,5.69034 L191.953,5.94572 L192.839,6.20642 L193.724,6.47242 L194.605,6.7437 L195.485,7.02025 L196.362,7.30205 L197.237,7.58907 L198.109,7.8813 L198.979,8.17873 L199.847,8.48132 L200.712,8.78907 L201.575,9.10196 L202.435,9.41996 L203.293,9.74307 L204.148,10.0713 L205.001,10.4045 L205.851,10.7428 L206.699,11.0861 L207.544,11.4344 L208.387,11.7877 L209.227,12.146 L210.064,12.5093 L210.899,12.8774 L211.73,13.2505 L212.56,13.6285 L213.386,14.0114 L214.21,14.3991 L215.031,14.7916 L215.85,15.189 L216.665,15.5912 L217.478,15.9982 L218.288,16.4099 L219.095,16.8264 L219.899,17.2476 L220.7,17.6736 L221.499,18.1042 L222.294,18.5395 L223.087,18.9795 L223.877,19.4241 L224.664,19.8733 L225.447,20.3271 L226.228,20.7855 L227.006,21.2485 L227.78,21.716 L228.552,22.1881 L229.321,22.6646 L230.086,23.1457 L230.848,23.6312 L231.608,24.1212 L232.364,24.6156 L233.117,25.1144 L233.866,25.6176 L234.613,26.1253 L235.356,26.6372 L236.096,27.1536 L236.833,27.6742 L237.567,28.1992 L238.297,28.7284 L239.024,29.2619 L239.747,29.7997 L240.468,30.3417 L241.184,30.8879 L241.898,31.4383 L242.608,31.9929 L243.315,32.5517 L244.018,33.1146 L244.718,33.6816 L245.414,34.2527 L246.107,34.8279 L246.796,35.4072 L247.482,35.9905 L248.164,36.5779 L248.842,37.1693 L249.517,37.7646 L250.189,38.364 L250.857,38.9673 L251.521,39.5745 L252.181,40.1857 L252.838,40.8008 L253.491,41.4197 L254.14,42.0425 L254.786,42.6692 L255.428,43.2997 L256.066,43.934 L256.7,44.5721 L257.331,45.2139 L257.957,45.8596 L258.58,46.5089 L259.199,47.162 L259.814,47.8188 L260.425,48.4793 L261.033,49.1434 L261.636,49.8112 L262.235,50.4826 L262.831,51.1576 L263.422,51.8362 L264.009,52.5183 L264.593,53.204 L265.172,53.8933 L265.747,54.5861 L266.318,55.2823 L266.885,55.9821 L267.448,56.6853 L268.007,57.3919 L268.562,58.102 L269.112,58.8155 L269.658,59.5324 L270.2,60.2526 L270.738,60.9762 L271.272,61.7031 L271.801,62.4333 L272.326,63.1669 L272.846,63.9037 L273.363,64.6437 L273.875,65.387 L274.382,66.1336 L274.886,66.8833 L275.384,67.6362 L275.879,68.3923 L276.369,69.1515 L276.854,69.9139 L277.335,70.6793 L277.812,71.4479 L278.284,72.2195 L278.752,72.9942 L279.214,73.772 L279.673,74.5527 L280.127,75.3365 L280.576,76.1232 L281.021,76.9129 L281.461,77.7055 L281.896,78.5011 L282.326,79.2996 L282.752,80.1009 L283.174,80.9052 L283.59,81.7123 L284.002,82.5222 L284.409,83.3349 L284.811,84.1505 L285.208,84.9688 L285.601,85.7899 L285.989,86.6137 L286.372,87.4403 L286.749,88.2695 L287.123,89.1015 L287.491,89.9361 L287.854,90.7733 L288.212,91.6132 L288.566,92.4557 L288.914,93.3008 L289.257,94.1485 L289.595,94.9988 L289.929,95.8516 L290.257,96.7069 L290.58,97.5647 L290.898,98.425 L291.211,99.2877 L291.519,100.153 L291.821,101.021 L292.119,101.891 L292.411,102.763 L292.698,103.638 L292.98,104.515 L293.256,105.395 L293.528,106.276 L293.794,107.161 L294.054,108.047 L294.31,108.936 L294.56,109.827 L294.804,110.72 L295.044,111.615 L295.278,112.513 L295.506,113.412 L295.729,114.314 L295.947,115.218 L296.159,116.124 L296.366,117.033 L296.567,117.943 L296.762,118.855 L296.953,119.77 L297.137,120.686 L297.316,121.605 L297.489,122.525 L297.657,123.448 L297.819,124.372 L297.976,125.298 L298.127,126.226 L298.272,127.156 L298.411,128.088 L298.545,129.022 L298.673,129.958 L298.795,130.895 L298.911,131.835 L299.022,132.776 L299.127,133.719 L299.226,134.663 L299.319,135.61 L299.406,136.558 L299.487,137.508 L299.563,138.459 L299.632,139.412 L299.696,140.367 L299.753,141.323 L299.805,142.281 L299.85,143.241 L299.89,144.202 L299.924,145.164 L299.951,146.128 L299.972,147.094 L299.988,148.061 L299.997,149.03 L300,150" fill-rule="evenodd"/>
  </g>
  <g font-family="MS Shell Dlg 2" transform="matrix(11.811,0,0,11.811,0,0)" font-weight="400" stroke-opacity="1" stroke-linecap="square" stroke="#000000" stroke-linejoin="bevel" stroke-width="1" font-size="32.5" font-style="normal" fill="none"/>
  <g font-family="MS Shell Dlg 2" transform="matrix(11.811,0,0,11.811,0,0)" font-weight="400" stroke-opacity="1" stroke-linecap="square" stroke="#000000" stroke-linejoin="bevel" stroke-width="1" font-size="32.5" font-style="normal" fill="none"/>
  <g font-family="MS Shell Dlg 2" transform="matrix(11.7948,0.618141,-0.618141,11.7948,94.1897,100.629)" font-weight="400" stroke-opacity="1" stroke-linecap="square" stroke="#000000" stroke-linejoin="bevel" stroke-width="1" font-size="32.5" font-style="normal" fill="none"/>
  <g font-family="MS Shell Dlg 2" transform="matrix(0.99863,0.052336,-0.052336,0.99863,94.1897,100.629)" font-weight="400" stroke-opacity="1" stroke-linecap="square" stroke="#000000" stroke-linejoin="bevel" stroke-width="1" font-size="32.5" font-style="normal" fill="none"/>
  <g font-family="MS Shell Dlg 2" transform="matrix(11.7948,0.618141,-0.618141,11.7948,94.1897,100.629)" font-weight="400" stroke-opacity="1" stroke-linecap="square" stroke="#000000" stroke-linejoin="bevel" stroke-width="1" font-size="32.5" font-style="normal" fill="none"/>
  <g fill-opacity="1" font-family="MS Shell Dlg 2" transform="matrix(0.175811,0.00921386,-0.00905399,0.17276,94.1897,100.629)" font-weight="400" stroke="none" font-size="32.5" font-style="normal" fill="#0b3d91">
   <path vector-effect="none" d="M289.997,33.31 L65.387,547.075 L285.886,403.129 L514.518,546.865 L289.997,33.31" fill-rule="nonzero"/>
  </g>
  <g font-family="MS Shell Dlg 2" transform="matrix(0.175811,0.00921386,-0.00905399,0.17276,94.1897,100.629)" font-weight="400" stroke-opacity="1" stroke-linecap="butt" stroke="#0b3d91" stroke-linejoin="miter" stroke-width="13.4176" stroke-miterlimit="4" font-size="32.5" font-style="normal" fill="none">
   <path vector-effect="none" d="M289.997,33.31 L65.387,547.075 L285.886,403.129 L514.518,546.865 L289.997,33.31" fill-rule="nonzero"/>
  </g>
  <g font-family="MS Shell Dlg 2" transform="matrix(11.7948,0.618141,-0.618141,11.7948,94.1897,100.629)" font-weight="400" stroke-opacity="1" stroke-linecap="square" stroke="#000000" stroke-linejoin="bevel" stroke-width="1" font-size="32.5" font-style="normal" fill="none"/>
  <g font-family="MS Shell Dlg 2" transform="matrix(0.99863,0.052336,-0.052336,0.99863,94.1897,100.629)" font-weight="400" stroke-opacity="1" stroke-linecap="square" stroke="#000000" stroke-linejoin="bevel" stroke-width="1" font-size="32.5" font-style="normal" fill="none"/>
  <g font-family="MS Shell Dlg 2" transform="matrix(11.7948,0.618141,-0.618141,11.7948,94.1897,100.629)" font-weight="400" stroke-opacity="1" stroke-linecap="square" stroke="#000000" stroke-linejoin="bevel" stroke-width="1" font-size="32.5" font-style="normal" fill="none"/>
  <g font-family="MS Shell Dlg 2" transform="matrix(11.7948,0.618141,-0.618141,11.7948,94.1897,100.629)" font-weight="400" stroke-opacity="1" stroke-linecap="square" stroke="#000000" stroke-linejoin="bevel" stroke-width="1" font-size="32.5" font-style="normal" fill="none"/>
  <g font-family="MS Shell Dlg 2" transform="matrix(11.811,0,0,11.811,8.1636,103.232)" font-weight="400" stroke-opacity="1" stroke-linecap="square" stroke="#000000" stroke-linejoin="bevel" stroke-width="1" font-size="32.5" font-style="normal" fill="none"/>
  <g font-family="MS Shell Dlg 2" transform="matrix(1,0,0,1,8.1636,103.232)" font-weight="400" stroke-opacity="1" stroke-linecap="square" stroke="#000000" stroke-linejoin="bevel" stroke-width="1" font-size="32.5" font-style="normal" fill="none"/>
  <g font-family="Segoe Print" transform="matrix(11.811,0,0,11.811,8.1636,103.232)" font-weight="400" stroke-opacity="1" stroke-linecap="square" stroke="#000000" stroke-linejoin="bevel" stroke-width="1" font-size="112.5" font-style="normal" fill="none"/>
  <g font-family="Segoe Print" transform="matrix(1.1811,0,0,1.1811,8.1636,103.232)" font-weight="400" stroke-opacity="1" stroke-linecap="square" stroke="#09214c" stroke-linejoin="bevel" stroke-width="1" font-size="95" font-style="normal" fill="none"/>
  <g font-family="Segoe Print" transform="matrix(1.1811,0,0,1.1811,8.1636,103.232)" font-weight="400" stroke-opacity="1" stroke-linecap="square" stroke="#09214c" stroke-linejoin="bevel" stroke-width="1" font-size="95" font-style="normal" fill="none">
   <text fill-opacity="1" font-family="Segoe Print" font-weight="400" stroke="none" xml:space="preserve" x="-3.95313" y="78.4844" font-size="95" font-style="normal" fill="#09214c">M</text>
  </g>
  <g font-family="Segoe Print" transform="matrix(1.1811,0,0,1.1811,8.1636,103.232)" font-weight="400" stroke-opacity="1" stroke-linecap="square" stroke="#09214c" stroke-linejoin="bevel" stroke-width="1" font-size="95" font-style="normal" fill="none"/>
  <g font-family="Segoe Print" transform="matrix(1,0,0,1,0,0)" font-weight="400" stroke-opacity="1" stroke-linecap="square" stroke="#09214c" stroke-linejoin="bevel" stroke-width="1" font-size="95" font-style="normal" fill="none"/>
  <g font-family="Segoe Print" transform="matrix(1.1811,0,0,1.1811,8.1636,103.232)" font-weight="400" stroke-opacity="1" stroke-linecap="square" stroke="#09214c" stroke-linejoin="bevel" stroke-width="1" font-size="95" font-style="normal" fill="none"/>
  <g font-family="Segoe Print" transform="matrix(11.811,0,0,11.811,8.1636,103.232)" font-weight="400" stroke-opacity="1" stroke-linecap="square" stroke="#000000" stroke-linejoin="bevel" stroke-width="1" font-size="112.5" font-style="normal" fill="none"/>
  <g font-family="MS Shell Dlg 2" transform="matrix(1,0,0,1,8.1636,103.232)" font-weight="400" stroke-opacity="1" stroke-linecap="square" stroke="#000000" stroke-linejoin="bevel" stroke-width="1" font-size="32.5" font-style="normal" fill="none"/>
  <g font-family="MS Shell Dlg 2" transform="matrix(11.811,0,0,11.811,8.1636,103.232)" font-weight="400" stroke-opacity="1" stroke-linecap="square" stroke="#000000" stroke-linejoin="bevel" stroke-width="1" font-size="32.5" font-style="normal" fill="none"/>
  <g font-family="MS Shell Dlg 2" transform="matrix(11.811,0,0,11.811,8.1636,103.232)" font-weight="400" stroke-opacity="1" stroke-linecap="square" stroke="#000000" stroke-linejoin="bevel" stroke-width="1" font-size="32.5" font-style="normal" fill="none"/>
  <g font-family="MS Shell Dlg 2" transform="matrix(11.7948,-0.618141,0.618141,11.7948,199.791,97.4373)" font-weight="400" stroke-opacity="1" stroke-linecap="square" stroke="#000000" stroke-linejoin="bevel" stroke-width="1" font-size="32.5" font-style="normal" fill="none"/>
  <g font-family="MS Shell Dlg 2" transform="matrix(0.99863,-0.052336,0.052336,0.99863,199.791,97.4373)" font-weight="400" stroke-opacity="1" stroke-linecap="square" stroke="#000000" stroke-linejoin="bevel" stroke-width="1" font-size="32.5" font-style="normal" fill="none"/>
  <g font-family="Segoe Print" transform="matrix(11.7948,-0.618141,0.618141,11.7948,199.791,97.4373)" font-weight="400" stroke-opacity="1" stroke-linecap="square" stroke="#000000" stroke-linejoin="bevel" stroke-width="1" font-size="125" font-style="normal" fill="none"/>
  <g font-family="Segoe Print" transform="matrix(1.17948,-0.0618141,0.0618141,1.17948,199.791,97.4373)" font-weight="400" stroke-opacity="1" stroke-linecap="square" stroke="#09214c" stroke-linejoin="bevel" stroke-width="1" font-size="106" font-style="normal" fill="none"/>
  <g font-family="Segoe Print" transform="matrix(1.17948,-0.0618141,0.0618141,1.17948,199.791,97.4373)" font-weight="400" stroke-opacity="1" stroke-linecap="square" stroke="#09214c" stroke-linejoin="bevel" stroke-width="1" font-size="106" font-style="normal" fill="none">
   <text fill-opacity="1" font-family="Segoe Print" font-weight="400" stroke="none" xml:space="preserve" x="2.26563" y="89.0469" font-size="106" font-style="normal" fill="#09214c">P</text>
  </g>
  <g font-family="Segoe Print" transform="matrix(1.17948,-0.0618141,0.0618141,1.17948,199.791,97.4373)" font-weight="400" stroke-opacity="1" stroke-linecap="square" stroke="#09214c" stroke-linejoin="bevel" stroke-width="1" font-size="106" font-style="normal" fill="none"/>
  <g font-family="Segoe Print" transform="matrix(1,0,0,1,0,0)" font-weight="400" stroke-opacity="1" stroke-linecap="square" stroke="#09214c" stroke-linejoin="bevel" stroke-width="1" font-size="106" font-style="normal" fill="none"/>
  <g font-family="Segoe Print" transform="matrix(1.17948,-0.0618141,0.0618141,1.17948,199.791,97.4373)" font-weight="400" stroke-opacity="1" stroke-linecap="square" stroke="#09214c" stroke-linejoin="bevel" stroke-width="1" font-size="106" font-style="normal" fill="none"/>
  <g font-family="Segoe Print" transform="matrix(11.7948,-0.618141,0.618141,11.7948,199.791,97.4373)" font-weight="400" stroke-opacity="1" stroke-linecap="square" stroke="#000000" stroke-linejoin="bevel" stroke-width="1" font-size="125" font-style="normal" fill="none"/>
  <g font-family="MS Shell Dlg 2" transform="matrix(0.99863,-0.052336,0.052336,0.99863,199.791,97.4373)" font-weight="400" stroke-opacity="1" stroke-linecap="square" stroke="#000000" stroke-linejoin="bevel" stroke-width="1" font-size="32.5" font-style="normal" fill="none"/>
  <g font-family="MS Shell Dlg 2" transform="matrix(11.7948,-0.618141,0.618141,11.7948,199.791,97.4373)" font-weight="400" stroke-opacity="1" stroke-linecap="square" stroke="#000000" stroke-linejoin="bevel" stroke-width="1" font-size="32.5" font-style="normal" fill="none"/>
  <g font-family="MS Shell Dlg 2" transform="matrix(11.7948,-0.618141,0.618141,11.7948,199.791,97.4373)" font-weight="400" stroke-opacity="1" stroke-linecap="square" stroke="#000000" stroke-linejoin="bevel" stroke-width="1" font-size="32.5" font-style="normal" fill="none"/>
  <g font-family="MS Shell Dlg 2" transform="matrix(11.811,0,0,11.811,187.707,81.6358)" font-weight="400" stroke-opacity="1" stroke-linecap="square" stroke="#000000" stroke-linejoin="bevel" stroke-width="1" font-size="32.5" font-style="normal" fill="none"/>
  <g font-family="MS Shell Dlg 2" transform="matrix(1,0,0,1,187.707,81.6358)" font-weight="400" stroke-opacity="1" stroke-linecap="square" stroke="#000000" stroke-linejoin="bevel" stroke-width="1" font-size="32.5" font-style="normal" fill="none"/>
  <g font-family="MS Shell Dlg 2" transform="matrix(11.5529,2.45565,-2.45565,11.5529,196.313,81.6358)" font-weight="400" stroke-opacity="1" stroke-linecap="square" stroke="#000000" stroke-linejoin="bevel" stroke-width="1" font-size="32.5" font-style="normal" fill="none"/>
  <g font-family="MS Shell Dlg 2" transform="matrix(1.64034,0.348665,-0.348665,1.64034,185.918,65.6287)" font-weight="400" stroke="none" font-size="32.5" font-style="normal" fill="none">
   <path vector-effect="none" d="M20.8,14.1053 C20.8,16.7563 16,22.6947 16,22.6947 C16,22.6947 11.2,16.7563 11.2,14.1053 C11.2,11.4543 13.349,9.30531 16,9.30531 C18.651,9.30531 20.8,11.4543 20.8,14.1053 " fill-rule="nonzero"/>
  </g>
  <g font-family="MS Shell Dlg 2" transform="matrix(1.64034,0.348665,-0.348665,1.64034,185.918,65.6287)" font-weight="400" stroke-opacity="1" stroke-linecap="round" stroke="#0e6ea1" stroke-linejoin="round" stroke-width="0.605674" font-size="32.5" font-style="normal" fill="none">
   <path vector-effect="none" d="M20.8,14.1053 C20.8,16.7563 16,22.6947 16,22.6947 C16,22.6947 11.2,16.7563 11.2,14.1053 C11.2,11.4543 13.349,9.30531 16,9.30531 C18.651,9.30531 20.8,11.4543 20.8,14.1053 " fill-rule="nonzero"/>
  </g>
  <g font-family="MS Shell Dlg 2" transform="matrix(1.64034,0.348665,-0.348665,1.64034,185.918,65.6287)" font-weight="400" stroke="none" font-size="32.5" font-style="normal" fill="none">
   <path vector-effect="none" d="M18,14 C18,15.1046 17.1046,16 16,16 C14.8954,16 14,15.1046 14,14 C14,12.8954 14.8954,12 16,12 C17.1046,12 18,12.8954 18,14 " fill-rule="nonzero"/>
  </g>
  <g font-family="MS Shell Dlg 2" transform="matrix(1.64034,0.348665,-0.348665,1.64034,185.918,65.6287)" font-weight="400" stroke-opacity="1" stroke-linecap="round" stroke="#0e6ea1" stroke-linejoin="round" stroke-width="0.605674" font-size="32.5" font-style="normal" fill="none">
   <path vector-effect="none" d="M18,14 C18,15.1046 17.1046,16 16,16 C14.8954,16 14,15.1046 14,14 C14,12.8954 14.8954,12 16,12 C17.1046,12 18,12.8954 18,14 " fill-rule="nonzero"/>
  </g>
  <g font-family="MS Shell Dlg 2" transform="matrix(11.5529,2.45565,-2.45565,11.5529,196.313,81.6358)" font-weight="400" stroke-opacity="1" stroke-linecap="square" stroke="#000000" stroke-linejoin="bevel" stroke-width="1" font-size="32.5" font-style="normal" fill="none"/>
  <g font-family="MS Shell Dlg 2" transform="matrix(1,0,0,1,187.707,81.6358)" font-weight="400" stroke-opacity="1" stroke-linecap="square" stroke="#000000" stroke-linejoin="bevel" stroke-width="1" font-size="32.5" font-style="normal" fill="none"/>
  <g font-family="MS Shell Dlg 2" transform="matrix(11.811,0,0,11.811,187.707,81.6358)" font-weight="400" stroke-opacity="1" stroke-linecap="square" stroke="#000000" stroke-linejoin="bevel" stroke-width="1" font-size="32.5" font-style="normal" fill="none"/>
  <g font-family="MS Shell Dlg 2" transform="matrix(11.811,0,0,11.811,187.707,81.6358)" font-weight="400" stroke-opacity="1" stroke-linecap="square" stroke="#000000" stroke-linejoin="bevel" stroke-width="1" font-size="32.5" font-style="normal" fill="none"/>
  <g font-family="MS Shell Dlg 2" transform="matrix(11.811,0,0,11.811,160.033,105.238)" font-weight="400" stroke-opacity="1" stroke-linecap="square" stroke="#000000" stroke-linejoin="bevel" stroke-width="1" font-size="32.5" font-style="normal" fill="none"/>
  <g font-family="MS Shell Dlg 2" transform="matrix(1,0,0,1,160.033,105.238)" font-weight="400" stroke-opacity="1" stroke-linecap="square" stroke="#000000" stroke-linejoin="bevel" stroke-width="1" font-size="32.5" font-style="normal" fill="none"/>
  <g font-family="Segoe Print" transform="matrix(11.811,0,0,11.811,160.033,105.238)" font-weight="400" stroke-opacity="1" stroke-linecap="square" stroke="#000000" stroke-linejoin="bevel" stroke-width="1" font-size="125" font-style="normal" fill="none"/>
  <g font-family="Segoe Print" transform="matrix(1.1811,0,0,1.1811,160.033,105.238)" font-weight="400" stroke-opacity="1" stroke-linecap="square" stroke="#0b3d91" stroke-linejoin="bevel" stroke-width="1" font-size="106" font-style="normal" fill="none"/>
  <g font-family="Segoe Print" transform="matrix(1.1811,0,0,1.1811,160.033,105.238)" font-weight="400" stroke-opacity="1" stroke-linecap="square" stroke="#0b3d91" stroke-linejoin="bevel" stroke-width="1" font-size="106" font-style="normal" fill="none">
   <text fill-opacity="1" font-family="Segoe Print" font-weight="400" stroke="none" xml:space="preserve" x="12.7813" y="81.4531" font-size="106" font-style="normal" fill="#0b3d91">I</text>
  </g>
  <g font-family="Segoe Print" transform="matrix(1.1811,0,0,1.1811,160.033,105.238)" font-weight="400" stroke-opacity="1" stroke-linecap="square" stroke="#0b3d91" stroke-linejoin="bevel" stroke-width="1" font-size="106" font-style="normal" fill="none"/>
  <g font-family="Segoe Print" transform="matrix(1,0,0,1,0,0)" font-weight="400" stroke-opacity="1" stroke-linecap="square" stroke="#0b3d91" stroke-linejoin="bevel" stroke-width="1" font-size="106" font-style="normal" fill="none"/>
  <g font-family="Segoe Print" transform="matrix(1.1811,0,0,1.1811,160.033,105.238)" font-weight="400" stroke-opacity="1" stroke-linecap="square" stroke="#0b3d91" stroke-linejoin="bevel" stroke-width="1" font-size="106" font-style="normal" fill="none"/>
  <g font-family="Segoe Print" transform="matrix(11.811,0,0,11.811,160.033,105.238)" font-weight="400" stroke-opacity="1" stroke-linecap="square" stroke="#000000" stroke-linejoin="bevel" stroke-width="1" font-size="125" font-style="normal" fill="none"/>
  <g font-family="MS Shell Dlg 2" transform="matrix(1,0,0,1,160.033,105.238)" font-weight="400" stroke-opacity="1" stroke-linecap="square" stroke="#000000" stroke-linejoin="bevel" stroke-width="1" font-size="32.5" font-style="normal" fill="none"/>
  <g font-family="MS Shell Dlg 2" transform="matrix(11.811,0,0,11.811,160.033,105.238)" font-weight="400" stroke-opacity="1" stroke-linecap="square" stroke="#000000" stroke-linejoin="bevel" stroke-width="1" font-size="32.5" font-style="normal" fill="none"/>
  <g font-family="MS Shell Dlg 2" transform="matrix(11.811,0,0,11.811,160.033,105.238)" font-weight="400" stroke-opacity="1" stroke-linecap="square" stroke="#000000" stroke-linejoin="bevel" stroke-width="1" font-size="32.5" font-style="normal" fill="none"/>
  <g font-family="MS Shell Dlg 2" transform="matrix(1,0,0,1,0,0)" font-weight="400" stroke-opacity="1" stroke-linecap="square" stroke="#000000" stroke-linejoin="bevel" stroke-width="1" font-size="32.5" font-style="normal" fill="none"/>
 </g>
 <metadata>
  <rdf:RDF xmlns:rdfs="http://www.w3.org/2000/01/rdf-schema#" xmlns:dc="http://purl.org/dc/elements/1.1/" xmlns:rdf="http://www.w3.org/1999/02/22-rdf-syntax-ns#">
   <rdf:Description dc:format="image/svg+xml" dc:date="2021-01-08T10:35:16" dc:description="" dc:title="" dc:identifier="">
    <dc:creator>
     <rdf:Bag>
      <rdf:li>user</rdf:li>
     </rdf:Bag>
    </dc:creator>
    <dc:publisher>
     <rdf:Bag>
      <rdf:li>QGIS 3.16.2-Hannover</rdf:li>
     </rdf:Bag>
    </dc:publisher>
    <dc:subject>
     <rdf:Bag/>
    </dc:subject>
   </rdf:Description>
   <cc:Work rdf:about="">
    <dc:format>image/svg+xml</dc:format>
    <dc:title></dc:title>
    <dc:date>2021-01-08T10:35:16</dc:date>
    <dc:identifier></dc:identifier>
    <dc:description></dc:description>
    <dc:creator>
     <cc:Agent>
      <dc:title>user</dc:title>
     </cc:Agent>
    </dc:creator>
    <dc:publisher>
     <cc:Agent>
      <dc:title>QGIS 3.16.2-Hannover</dc:title>
     </cc:Agent>
    </dc:publisher>
   </cc:Work>
  </rdf:RDF>
 </metadata>
</svg>
